<?xml version="1.0" encoding="utf-8"?>
<!-- Generator: Adobe Illustrator 16.0.0, SVG Export Plug-In . SVG Version: 6.00 Build 0)  -->
<!DOCTYPE svg PUBLIC "-//W3C//DTD SVG 1.1//EN" "http://www.w3.org/Graphics/SVG/1.1/DTD/svg11.dtd">
<svg version="1.1" id="Слой_1" xmlns="http://www.w3.org/2000/svg" xmlns:xlink="http://www.w3.org/1999/xlink" x="0px" y="0px"
	 width="34.569px" height="72.726px" viewBox="0 0 34.569 72.726" enable-background="new 0 0 34.569 72.726" xml:space="preserve">
<g>
	<circle fill="none" stroke="#0D84FA" stroke-width="1.3813" stroke-miterlimit="10" cx="7.125" cy="7.126" r="3.316"/>
	<g>
		<line fill="none" stroke="#0D84FA" stroke-width="1.3813" stroke-miterlimit="10" x1="9.762" y1="4.372" x2="11.168" y2="2.966"/>
		<line fill="none" stroke="#0D84FA" stroke-width="1.3813" stroke-miterlimit="10" x1="3.083" y1="11.286" x2="4.489" y2="9.88"/>
	</g>
	<g>
		
			<line fill="none" stroke="#0D84FA" stroke-width="1.3813" stroke-miterlimit="10" x1="9.879" y1="9.763" x2="11.286" y2="11.169"/>
		<line fill="none" stroke="#0D84FA" stroke-width="1.3813" stroke-miterlimit="10" x1="2.966" y1="3.083" x2="4.372" y2="4.489"/>
	</g>
	<g>
		
			<line fill="none" stroke="#0D84FA" stroke-width="1.3813" stroke-miterlimit="10" x1="10.938" y1="7.043" x2="14.252" y2="7.043"/>
		<line fill="none" stroke="#0D84FA" stroke-width="1.3813" stroke-miterlimit="10" x1="0" y1="7.209" x2="3.314" y2="7.209"/>
	</g>
	<g>
		
			<line fill="none" stroke="#0D84FA" stroke-width="1.3813" stroke-miterlimit="10" x1="7.208" y1="10.938" x2="7.208" y2="14.252"/>
		<line fill="none" stroke="#0D84FA" stroke-width="1.3813" stroke-miterlimit="10" x1="7.043" y1="0" x2="7.043" y2="3.314"/>
	</g>
</g>
<g>
	<path fill="none" stroke="#0D84FA" stroke-width="1.3813" stroke-miterlimit="10" d="M29.017,22.297h0.556
		c2.378,0,4.307-1.929,4.307-4.307l0,0h-13.56c-4.289,0-7.766,3.477-7.766,7.766v1.248h7.118"/>
	<g>
		<path fill="none" stroke="#0D84FA" stroke-width="1.3813" stroke-miterlimit="10" d="M29.47,44.887v27.148l0,0
			c-1.561,0-2.825-1.265-2.825-2.825V46.757"/>
		<path fill="none" stroke="#0D84FA" stroke-width="1.3813" stroke-miterlimit="10" d="M26.645,68.792L26.645,68.792
			c-1.561,0-2.825-1.265-2.825-2.825v-19.21"/>
		<path fill="none" stroke="#0D84FA" stroke-width="1.3813" stroke-miterlimit="10" d="M23.819,65.549L23.819,65.549
			c-1.561,0-2.825-1.266-2.825-2.826V44.887"/>
	</g>
	<path fill="none" stroke="#0D84FA" stroke-width="1.3813" stroke-miterlimit="10" d="M14.19,27.004
		c0.682,2.105,2.658,3.627,4.989,3.627h0.491"/>
	<path fill="none" stroke="#0D84FA" stroke-width="1.3813" stroke-miterlimit="10" d="M29.572,22.297h4.307l0,0
		c0,2.378-1.929,4.306-4.307,4.306h-0.556v14.271h-6.682c-1.471,0-2.664-1.193-2.664-2.665V18.063"/>
	<path fill="none" stroke="#0D84FA" stroke-width="1.3813" stroke-miterlimit="10" d="M29.017,38.715h-1.214
		c-2.028,0-3.673-1.645-3.673-3.674v-6.778"/>
	<circle fill="none" stroke="#0D84FA" stroke-width="1.3813" stroke-miterlimit="10" cx="23.743" cy="22.22" r="1.901"/>
	
		<circle display="none" fill="none" stroke="#0D84FA" stroke-width="1.3813" stroke-miterlimit="10" cx="31.557" cy="42.88" r="2.007"/>
	<g>
		<g>
			<path fill="none" stroke="#0D84FA" stroke-width="1.3813" stroke-miterlimit="10" d="M22.028,44.822
				c-0.333-0.509-0.537-1.191-0.537-1.942c0-0.772,0.217-1.473,0.567-1.985"/>
			<path fill="none" stroke="#0D84FA" stroke-width="1.3813" stroke-miterlimit="10" d="M25.504,40.029"/>
			<path fill="none" stroke="#0D84FA" stroke-width="1.3813" stroke-miterlimit="10" d="M25.504,45.731"/>
		</g>
		<g>
			<path fill="none" stroke="#0D84FA" stroke-width="1.3813" stroke-miterlimit="10" d="M25.766,44.896
				c-0.362-0.517-0.587-1.229-0.587-2.017c0-0.782,0.221-1.491,0.581-2.007"/>
		</g>
	</g>
	<path fill="none" stroke="#0D84FA" stroke-width="1.3813" stroke-miterlimit="10" d="M31.557,44.887H18.708
		c-1.108,0-2.006-0.898-2.006-2.007s0.898-2.006,2.006-2.006h12.849"/>
</g>
</svg>
